<svg width="current" height="current" viewBox="0 0 16 10" fill="none" xmlns="http://www.w3.org/2000/svg">
<path d="M7.32004 8.5353L7.33459 8.54959L7.35051 8.56234C7.53425 8.70933 7.7451 8.79999 8.00039 8.79999C8.30181 8.79999 8.52259 8.64312 8.68192 8.48414L14.4307 2.8353L14.4308 2.83531L14.4332 2.83283C14.8144 2.45162 14.8144 1.84835 14.4332 1.46715C14.0524 1.08631 13.4499 1.08594 13.0687 1.46603C13.0683 1.4664 13.0679 1.46677 13.0675 1.46715L7.99906 6.46457L2.93136 1.51527C2.55005 1.13594 1.94813 1.13656 1.56755 1.51715C1.18634 1.89835 1.18634 2.50162 1.56755 2.88283L1.56754 2.88284L1.57004 2.8853L7.32004 8.5353Z"/>
</svg>
