<svg width="33" height="33" viewBox="0 0 33 33" fill="none" xmlns="http://www.w3.org/2000/svg">
<path d="M25.3346 9.70402H21.5969L21.071 8.30746C20.7729 7.51149 20.0168 6.98566 19.1673 6.98566H13.8368C12.9873 6.98566 12.2228 7.51149 11.9254 8.30746L11.403 9.70402H7.66524C6.53967 9.70402 5.62646 10.6172 5.62646 11.7428V23.9755C5.62646 25.101 6.53967 26.0142 7.66524 26.0142H25.3346C26.4602 26.0142 27.3734 25.101 27.3734 23.9755V11.7428C27.3734 10.6172 26.4602 9.70402 25.3346 9.70402ZM20.7856 21.2061C19.745 22.5356 18.1862 23.2959 16.4999 23.2959C15.1501 23.2959 13.8933 22.7887 12.9074 21.9108L12.0885 22.7301C11.7088 23.109 11.0632 22.8414 11.0632 22.3062V19.0612C11.0632 18.8295 11.2483 18.6433 11.4784 18.6368H14.7481C15.2726 18.6497 15.5326 19.2854 15.1581 19.66L14.3396 20.479C14.9411 20.9768 15.6972 21.2571 16.4999 21.2571C17.5533 21.2571 18.5294 20.7805 19.1792 19.9497C19.5263 19.5063 20.1668 19.4281 20.6102 19.7745C21.0536 20.1209 21.1339 20.7601 20.7856 21.2061ZM21.9367 16.6571C21.9367 16.8887 21.7515 17.075 21.5215 17.0814H18.2518C17.7272 17.0686 17.4673 16.4328 17.8417 16.0582L18.6602 15.2393C18.0587 14.7415 17.3027 14.4612 16.4999 14.4612C15.4466 14.4612 14.4705 14.9377 13.8206 15.7685C13.4758 16.2111 12.8344 16.2918 12.3884 15.9435C11.9467 15.5995 11.866 14.9581 12.2143 14.5121C13.2549 13.1827 14.8137 12.4224 16.4999 12.4224C17.8498 12.4224 19.1066 12.9295 20.0924 13.8075L20.9113 12.9882C21.2911 12.6093 21.9367 12.8769 21.9367 13.412V16.6571Z" fill="black"/>
</svg>
